<?xml version="1.0" encoding="utf-8"?>
<!-- Generator: Adobe Illustrator 27.0.0, SVG Export Plug-In . SVG Version: 6.00 Build 0)  -->
<svg version="1.1" id="Livello_1" xmlns="http://www.w3.org/2000/svg" xmlns:xlink="http://www.w3.org/1999/xlink" x="0px" y="0px"
	 viewBox="0 0 30 20" style="enable-background:new 0 0 30 20;" xml:space="preserve">
<style type="text/css">
	.st0{fill:url(#SVGID_1_);}
	.st1{fill:url(#SVGID_00000017497527405456112440000014264696199831774654_);}
	.st2{fill:url(#SVGID_00000018220009464128798370000002662370514376222134_);}
</style>
<g>
	<linearGradient id="SVGID_1_" gradientUnits="userSpaceOnUse" x1="-9.094947e-12" y1="10" x2="30" y2="10">
		<stop  offset="9.169161e-02" style="stop-color:#404789"/>
		<stop  offset="0.4502" style="stop-color:#68316A"/>
		<stop  offset="0.8067" style="stop-color:#8A1E51"/>
		<stop  offset="1" style="stop-color:#971747"/>
	</linearGradient>
	<path class="st0" d="M27.9,12.3H2.1c-1.2,0-2.1-1-2.1-2.1l0-0.4c0-1.2,1-2.1,2.1-2.1h25.7c1.2,0,2.1,1,2.1,2.1v0.4
		C30,11.4,29,12.3,27.9,12.3z"/>
	
		<linearGradient id="SVGID_00000180331838103238047820000000286193755169285262_" gradientUnits="userSpaceOnUse" x1="-3.637979e-12" y1="2.3281" x2="30" y2="2.3281">
		<stop  offset="9.169161e-02" style="stop-color:#404789"/>
		<stop  offset="0.4502" style="stop-color:#68316A"/>
		<stop  offset="0.8067" style="stop-color:#8A1E51"/>
		<stop  offset="1" style="stop-color:#971747"/>
	</linearGradient>
	<path style="fill:url(#SVGID_00000180331838103238047820000000286193755169285262_);" d="M27.9,4.7H2.1C1,4.7,0,3.7,0,2.5l0-0.4
		C0,1,1,0,2.1,0l25.7,0C29,0,30,1,30,2.1v0.4C30,3.7,29,4.7,27.9,4.7z"/>
	
		<linearGradient id="SVGID_00000111186832310334152310000012144353881101774765_" gradientUnits="userSpaceOnUse" x1="-3.637979e-12" y1="17.6719" x2="30" y2="17.6719">
		<stop  offset="9.169161e-02" style="stop-color:#404789"/>
		<stop  offset="0.4502" style="stop-color:#68316A"/>
		<stop  offset="0.8067" style="stop-color:#8A1E51"/>
		<stop  offset="1" style="stop-color:#971747"/>
	</linearGradient>
	<path style="fill:url(#SVGID_00000111186832310334152310000012144353881101774765_);" d="M27.9,20H2.1C1,20,0,19,0,17.9l0-0.4
		c0-1.2,1-2.1,2.1-2.1h25.7c1.2,0,2.1,1,2.1,2.1v0.4C30,19,29,20,27.9,20z"/>
</g>
</svg>
