<svg xmlns="http://www.w3.org/2000/svg" xmlns:xlink="http://www.w3.org/1999/xlink" viewBox="0 0 29.33 29.33"><defs><style>.cls-1{fill:none;}.cls-2{isolation:isolate;}.cls-3{fill:url(#radial-gradient);}.cls-4{clip-path:url(#clip-path);}.cls-5{fill:#ca5142;}.cls-6,.cls-8{mix-blend-mode:multiply;}.cls-6{fill:url(#linear-gradient);}.cls-7{fill:#fff;}.cls-8{fill:url(#linear-gradient-2);}</style><radialGradient id="radial-gradient" cx="2.79" cy="32.14" r="28.96" gradientUnits="userSpaceOnUse"><stop offset="0.22" stop-color="#e6e6e6"/><stop offset="0.88" stop-color="#fcfcfc"/></radialGradient><clipPath id="clip-path"><path class="cls-1" d="M25.25,14.66A10.59,10.59,0,1,1,14.66,4.08,10.59,10.59,0,0,1,25.25,14.66Z"/></clipPath><linearGradient id="linear-gradient" x1="-1387.81" y1="-577.28" x2="-1387.67" y2="-559.1" gradientTransform="translate(1713.91 -877.45) rotate(-45) scale(1.32 1)" gradientUnits="userSpaceOnUse"><stop offset="0" stop-color="#b3b3b3"/><stop offset="0.77" stop-color="#fff"/></linearGradient><linearGradient id="linear-gradient-2" x1="-3296.14" y1="1557.74" x2="-3296.03" y2="1572.53" gradientTransform="translate(1814.44 -728.23) scale(0.54 0.48)" xlink:href="#linear-gradient"/></defs><title>Risorsa 3</title><g class="cls-2"><g id="Livello_2" data-name="Livello 2"><g id="Livello_1-2" data-name="Livello 1"><path class="cls-3" d="M6,0H23.3a6,6,0,0,1,6,6V23.31a6,6,0,0,1-6,6H6a6,6,0,0,1-6-6V6A6,6,0,0,1,6,0Z"/><g class="cls-4"><path class="cls-5" d="M25.25,14.66A10.59,10.59,0,1,1,14.66,4.08,10.59,10.59,0,0,1,25.25,14.66Z"/><polygon class="cls-6" points="26.01 21.97 19.12 28.86 8.02 17.75 8.98 11.64 14.9 10.86 26.01 21.97"/><path class="cls-7" d="M16.51,13.91H11.78V15.6h2.83a3,3,0,1,1-2.87-4.09,3,3,0,0,1,1.93.71h.08L15,11a4.8,4.8,0,0,0-3.26-1.28,4.92,4.92,0,0,0,0,9.84,4.68,4.68,0,0,0,1-.11,4.83,4.83,0,0,0,1.9-.9A5,5,0,0,0,16,16.88a4.59,4.59,0,0,0,.39-1,5.27,5.27,0,0,0,.09-1.32Z"/><rect class="cls-8" x="20.14" y="12.79" width="4.01" height="7.47" transform="translate(-5.2 20.5) rotate(-45)"/><rect class="cls-7" x="19.5" y="12.46" width="1.42" height="4.24"/><rect class="cls-7" x="18.09" y="13.87" width="4.24" height="1.42"/></g></g></g></g></svg>