<svg xmlns="http://www.w3.org/2000/svg" xmlns:xlink="http://www.w3.org/1999/xlink" viewBox="0 0 29.33 29.33"><defs><style>.cls-1{fill:url(#radial-gradient);}.cls-2{fill:#fff;}</style><radialGradient id="radial-gradient" cx="8.59" cy="31.6" r="38.86" gradientUnits="userSpaceOnUse"><stop offset="0.1" stop-color="#f9d786"/><stop offset="0.16" stop-color="#f5ca81"/><stop offset="0.27" stop-color="#eaa975"/><stop offset="0.42" stop-color="#d87462"/><stop offset="0.45" stop-color="#d4675d"/><stop offset="0.68" stop-color="#c13e97"/><stop offset="1" stop-color="#676bd7"/></radialGradient></defs><title>Risorsa 2</title><g id="Livello_2" data-name="Livello 2"><g id="Livello_1-2" data-name="Livello 1"><rect class="cls-1" width="29.33" height="29.33" rx="6.02" ry="6.02"/><path class="cls-2" d="M18.91,3.6H10.42A6.83,6.83,0,0,0,3.6,10.42v8.49a6.82,6.82,0,0,0,6.82,6.81h8.49a6.81,6.81,0,0,0,6.81-6.81V10.42A6.82,6.82,0,0,0,18.91,3.6ZM23.6,18.09a5.51,5.51,0,0,1-5.51,5.51H11.23a5.5,5.5,0,0,1-5.5-5.51V11.23a5.5,5.5,0,0,1,5.5-5.5h6.86a5.51,5.51,0,0,1,5.51,5.5Z"/><path class="cls-2" d="M15,8.88a5.83,5.83,0,1,0,5.83,5.82A5.83,5.83,0,0,0,15,8.88Zm0,9.33a3.51,3.51,0,1,1,3.51-3.51A3.51,3.51,0,0,1,15,18.21Z"/><path class="cls-2" d="M21.87,8.79A1.49,1.49,0,1,1,20.38,7.3,1.49,1.49,0,0,1,21.87,8.79Z"/></g></g></svg>